# This is a processed .obj file:
# - All positional values have been confirmed to be in the range of:
#       (0, 0, 0) to (1, 0, 1)    Note: Y must be zero
# - The total number of vertices has been confirmed not to exceed 100.
# - All positional values have been rounded to a precision of 3 digits.
# - An ASCII diagram of the mesh's topology is included at the top of the file,
#   this diagram also indicates the vertex indices (0-indexed).
# - Since only vertex and face definitions are supported (and desired), all
#   other definitions, such as normals and groups, have been stripped from
#   the original data.
# - Relative vertex references are supported on import, but converted to
#   absolute references upon export.
#
# Topology:
# 
#  0""""1""""2"""""""""""3"""4""""5
#  |    |    |           |   |    |
#  |    |    |           |   |    |
#  6.   |    |           |   |   ,7
#  |'-. |    |           |   | .´ |
#  |  '.|    |           |   L´   |
#  8""""9.   |           |  ,10"""11
#  |     '-. |           | /      |
#  |       '.|           L´       |
#  12""""""""13""""""""""14"""""""15
#  |         |           |        |
#  |         |           |        |
#  16"""""""/17""""""""""18"""""""19
#  |      .´ |           |'.      |
#  |    .´   |           | '.     |
#  20""/21   |           |   22"""23
#  | .´ |    |           |   |'-. |
#  L´   |    |           |   |  '.|
#  24   |    |           |   |    25
#  |    |    |           |   |    |
#  |    |    |           |   |    |
#  26   |    |           |   |   ,27
#  |'-. |    |           |   | .´ |
#  |  '.|    |           |   L´   |
#  28"""29   |           |  ,30"""31
#  |     '-. |           | /      |
#  |       '.|           L´       |
#  32""""""""33""""""""""34"""""""35
#  |         |           |        |
#  |         |           |        |
#  36"""""""/37""""""""""38"""""""39
#  |      .´ |           |'.      |
#  |    .´   |           | '.     |
#  40""/41   |           |   42"""43
#  | .´ |    |           |   |'-. |
#  L´   |    |           |   |  '.|
#  44   |    |           |   |    45
#  |    |    |           |   |    |
#  |    |    |           |   |    |
#  46"""47"""48""""""""""49""50"""51
#  |    |    |           |   |    |
#  |    |    |           |   |    |
#  52"""53"""54""""""""""55""56"""57

v 0.000 0.000 0.000
v 0.055 0.000 0.000
v 0.110 0.000 0.000
v 0.900 0.000 0.000
v 0.945 0.000 0.000
v 1.000 0.000 0.000
v 0.000 0.000 0.040
v 1.000 0.000 0.040
v 0.000 0.000 0.095
v 0.055 0.000 0.095
v 0.945 0.000 0.095
v 1.000 0.000 0.095
v 0.000 0.000 0.150
v 0.110 0.000 0.150
v 0.900 0.000 0.150
v 1.000 0.000 0.150
v 0.000 0.000 0.330
v 0.110 0.000 0.330
v 0.900 0.000 0.330
v 1.000 0.000 0.330
v 0.000 0.000 0.385
v 0.055 0.000 0.385
v 0.945 0.000 0.385
v 1.000 0.000 0.385
v 0.000 0.000 0.440
v 1.000 0.000 0.440
v 0.000 0.000 0.520
v 1.000 0.000 0.520
v 0.000 0.000 0.575
v 0.055 0.000 0.575
v 0.945 0.000 0.575
v 1.000 0.000 0.575
v 0.000 0.000 0.630
v 0.110 0.000 0.630
v 0.900 0.000 0.630
v 1.000 0.000 0.630
v 0.000 0.000 0.810
v 0.110 0.000 0.810
v 0.900 0.000 0.810
v 1.000 0.000 0.810
v 0.000 0.000 0.865
v 0.055 0.000 0.865
v 0.945 0.000 0.865
v 1.000 0.000 0.865
v 0.000 0.000 0.920
v 1.000 0.000 0.920
v 0.000 0.000 0.960
v 0.055 0.000 0.960
v 0.110 0.000 0.960
v 0.900 0.000 0.960
v 0.945 0.000 0.960
v 1.000 0.000 0.960
v 0.000 0.000 1.000
v 0.055 0.000 1.000
v 0.110 0.000 1.000
v 0.900 0.000 1.000
v 0.945 0.000 1.000
v 1.000 0.000 1.000

f 7 10 2 1
f 5 11 8 6
f 2 10 14 3
f 15 11 5 4
f 14 15 4 3
f 9 10 7
f 11 12 8
f 13 14 10 9
f 15 16 12 11
f 17 18 14 13
f 18 19 15 14
f 19 20 16 15
f 21 22 18 17
f 19 23 24 20
f 25 22 21
f 24 23 26
f 27 30 22 25
f 22 30 34 18
f 35 31 23 19
f 23 31 28 26
f 34 35 19 18
f 29 30 27
f 31 32 28
f 33 34 30 29
f 35 36 32 31
f 37 38 34 33
f 38 39 35 34
f 39 40 36 35
f 41 42 38 37
f 39 43 44 40
f 45 42 41
f 44 43 46
f 49 50 39 38
f 42 48 49 38
f 50 51 43 39
f 47 48 42 45
f 43 51 52 46
f 53 54 48 47
f 48 54 55 49
f 55 56 50 49
f 56 57 51 50
f 51 57 58 52
